<svg height="512" viewBox="0 0 59 59" width="512" xmlns="http://www.w3.org/2000/svg"><g fill="none"><path d="M40 4v23.05l-9.23 6.32-20.6 14.11C4.09 46.8 0 45.49 0 44V4z" fill="#3f5c6c"/><path d="M40 17v10.05l-9.23 6.32A86.1 86.1 0 0120 34C8.95 34 0 32.21 0 30V17c0 2.21 8.95 4 20 4s20-1.79 20-4z" fill="#35495e"/><path d="M27.971 17.231a1 1 0 01-.084-2 50.59 50.59 0 007.866-1.2 1 1 0 01.494 1.938 52.707 52.707 0 01-8.19 1.259z" fill="#35495e"/><circle cx="4" cy="10" fill="#ff5364" r="1"/><path d="M4 17a1 1 0 01-1-1v-2a1 1 0 012 0v2a1 1 0 01-1 1z" fill="#35495e"/><circle cx="4" cy="23" fill="#ff5364" r="1"/><path d="M4 30a1 1 0 01-1-1v-2a1 1 0 012 0v2a1 1 0 01-1 1z" fill="#2c3e50"/><circle cx="4" cy="36" fill="#ff5364" r="1"/><path d="M4 43a1 1 0 01-1-1v-2a1 1 0 012 0v2a1 1 0 01-1 1z" fill="#35495e"/><path d="M38.944 27c5.613 0 10.276 4.5 11.1 10.348 4.54.809 8.014 5.1 8.014 10.257 0 5.732-4.292 10.4-9.569 10.4H18.023C13.6 58 10 54.09 10 49.285s3.6-8.715 8.023-8.715h.163c.651-4.71 4.4-8.334 8.917-8.334.813 0 1.621.12 2.4.353A11.013 11.013 0 0138.944 27z" fill="#f0c419"/><ellipse cx="20" cy="4" fill="#547580" rx="20" ry="4"/></g></svg>